<?xml version="1.0" encoding="UTF-8" standalone="no"?>
<!-- Created with Inkscape (http://www.inkscape.org/) -->

<svg
   version="1.1"
   id="svg1"
   width="562.2547"
   height="294.46667"
   viewBox="0 0 562.2547 294.46667"
   xmlns="http://www.w3.org/2000/svg"
   xmlns:svg="http://www.w3.org/2000/svg">
  <defs
     id="defs1">
    <linearGradient
       x1="0"
       y1="0"
       x2="0"
       y2="100.00128"
       gradientUnits="userSpaceOnUse"
       id="linearGradient18">
      <stop
         style="stop-opacity:1;stop-color:#0000ff"
         offset="0"
         id="stop14" />
      <stop
         style="stop-opacity:1;stop-color:#0000ff"
         offset="0.25"
         id="stop15" />
      <stop
         style="stop-opacity:1;stop-color:#8080ff"
         offset="0.5"
         id="stop16" />
      <stop
         style="stop-opacity:1;stop-color:#ffffff"
         offset="0.75"
         id="stop17" />
      <stop
         style="stop-opacity:1;stop-color:#ffffff"
         offset="1"
         id="stop18" />
    </linearGradient>
    <clipPath
       clipPathUnits="userSpaceOnUse"
       id="clipPath18">
      <path
         d="M 5.69547,32.45546 116.15027,10.64517 31.12283,-39.72556 -79.33195,-17.91528 Z"
         transform="matrix(2.4264667,0,0,-2.4264667,271.88052,157.52659)"
         id="path18" />
    </clipPath>
    <clipPath
       clipPathUnits="userSpaceOnUse"
       id="clipPath19">
      <path
         d="M 5.69547,32.45546 116.15027,10.64517 31.12283,-39.72556 -79.33195,-17.91528 Z"
         transform="matrix(2.4264667,0,0,-2.4264667,271.88052,157.52659)"
         id="path19" />
    </clipPath>
  </defs>
  <g
     id="g1">
    <path
       id="path1"
       d="M 0,0 -12.41331,-7.3537"
       style="fill:none;stroke:#000000;stroke-width:0.3985;stroke-linecap:round;stroke-linejoin:round;stroke-miterlimit:10;stroke-dasharray:none;stroke-opacity:1"
       transform="matrix(2.4264667,0,0,-2.4264667,271.88052,157.52659)" />
    <path
       id="path2"
       d="M -2.07224,2.39104 C -1.69365,0.95639 -0.84999,0.27895 0,0 -0.84999,-0.27895 -1.69365,-0.95639 -2.07224,-2.39104"
       style="fill:none;stroke:#000000;stroke-width:0.3985;stroke-linecap:round;stroke-linejoin:round;stroke-miterlimit:10;stroke-dasharray:none;stroke-opacity:1"
       transform="matrix(-2.0875378,1.236673,1.236673,2.0875378,241.3441,175.61653)" />
    <path
       id="path3"
       d="M 0,0 21.70349,-4.28552"
       style="fill:none;stroke:#000000;stroke-width:0.3985;stroke-linecap:round;stroke-linejoin:round;stroke-miterlimit:10;stroke-dasharray:none;stroke-opacity:1"
       transform="matrix(2.4264667,0,0,-2.4264667,271.88052,157.52659)" />
    <path
       id="path4"
       d="M -2.07224,2.39104 C -1.69365,0.95639 -0.84999,0.27895 0,0 -0.84999,-0.27895 -1.69365,-0.95639 -2.07224,-2.39104"
       style="fill:none;stroke:#000000;stroke-width:0.3985;stroke-linecap:round;stroke-linejoin:round;stroke-miterlimit:10;stroke-dasharray:none;stroke-opacity:1"
       transform="matrix(2.3804123,0.47003086,0.47003086,-2.3804123,325.01762,168.01888)" />
    <path
       id="path5"
       d="M 0,0 V 23.5754"
       style="fill:none;stroke:#000000;stroke-width:0.3985;stroke-linecap:round;stroke-linejoin:round;stroke-miterlimit:10;stroke-dasharray:none;stroke-opacity:1"
       transform="matrix(2.4264667,0,0,-2.4264667,271.88052,157.52659)" />
    <path
       id="path6"
       d="M -2.07224,2.39104 C -1.69365,0.95639 -0.84999,0.27895 0,0 -0.84999,-0.27895 -1.69365,-0.95639 -2.07224,-2.39104"
       style="fill:none;stroke:#000000;stroke-width:0.3985;stroke-linecap:round;stroke-linejoin:round;stroke-miterlimit:10;stroke-dasharray:none;stroke-opacity:1"
       transform="matrix(0,-2.4264667,-2.4264667,0,271.88052,99.838222)" />
    <path
       id="path7"
       d="M 0,-54.94205 V 0"
       style="fill:none;stroke:#d96c00;stroke-width:0.99628;stroke-linecap:round;stroke-linejoin:round;stroke-miterlimit:10;stroke-dasharray:2.98883, 1.99255;stroke-dashoffset:0;stroke-opacity:0.6"
       transform="matrix(2.4264667,0,0,-2.4264667,271.88052,157.52659)" />
    <path
       id="path8"
       d="M -2.78957,3.47087 C -2.27992,1.38832 -1.14423,0.40492 0,0 -1.14423,-0.40492 -2.27992,-1.38832 -2.78957,-3.47087"
       style="fill:none;stroke:#d96c00;stroke-width:0.99628;stroke-linecap:round;stroke-linejoin:round;stroke-miterlimit:10;stroke-dasharray:none;stroke-opacity:0.6"
       transform="matrix(0,2.4264667,2.4264667,0,271.88052,292.05037)" />
    <path
       id="path9"
       d="M 54.4347,-51.65874 V 3.2833"
       style="fill:none;stroke:#d96c00;stroke-width:0.99628;stroke-linecap:round;stroke-linejoin:round;stroke-miterlimit:10;stroke-dasharray:2.98883, 1.99255;stroke-dashoffset:0;stroke-opacity:0.6"
       transform="matrix(2.4264667,0,0,-2.4264667,271.88052,157.52659)" />
    <path
       id="path10"
       d="M -2.78957,3.47087 C -2.27992,1.38832 -1.14423,0.40492 0,0 -1.14423,-0.40492 -2.27992,-1.38832 -2.78957,-3.47087"
       style="fill:none;stroke:#d96c00;stroke-width:0.99628;stroke-linecap:round;stroke-linejoin:round;stroke-miterlimit:10;stroke-dasharray:none;stroke-opacity:0.6"
       transform="matrix(0,2.4264667,2.4264667,0,403.96451,284.08352)" />
    <path
       id="path11"
       d="M 0,0 6.69946,0.40411 V 6.7972 L 0,6.39308 Z"
       style="fill:#ffbf80;fill-opacity:0;fill-rule:nonzero;stroke:#808080;stroke-width:0.49814;stroke-linecap:round;stroke-linejoin:round;stroke-miterlimit:10;stroke-dasharray:none;stroke-opacity:1"
       transform="matrix(2.4264667,0,0,-2.4264667,271.88052,157.52659)" />
    <path
       id="path12"
       d="M 54.4347,3.2833 47.73523,2.87918 v 6.3931 l 6.69947,0.40411 z"
       style="fill:#df809f;fill-opacity:0;fill-rule:nonzero;stroke:#808080;stroke-width:0.49814;stroke-linecap:round;stroke-linejoin:round;stroke-miterlimit:10;stroke-dasharray:none;stroke-opacity:1"
       transform="matrix(2.4264667,0,0,-2.4264667,271.88052,157.52659)" />
    <g
       id="g12"
       aria-label="˚&#10;Q"
       transform="matrix(2.4264667,0,0,2.4264667,141.70787,55.622273)">
      <path
         id="path13"
         d="m 8.9439887,-12.853537 c 0,-1.030305 -0.8242438,-1.815912 -1.7965938,-1.815912 -0.9723501,0 -1.7965939,0.785607 -1.7965939,1.815912 0,1.030305 0.8242438,1.815912 1.7965939,1.815912 0.97235,0 1.7965938,-0.785607 1.7965938,-1.815912 z m -1.7965938,1.487502 c -0.8628802,0 -1.4231084,-0.53447 -1.4231084,-1.487502 0,-0.97235 0.5795464,-1.487503 1.4231084,-1.487503 0.8693195,0 1.4295477,0.534471 1.4295477,1.487503 0,0.97235 -0.5795464,1.487502 -1.4295477,1.487502 z m 0,0"
         style="fill:#ff0000;fill-opacity:1;fill-rule:nonzero;stroke:none" />
      <path
         id="path14"
         d="m 1.0412297,4.6439343 c -0.39280368,0 -0.62462223,0 -1.13977458,0.3090914 -0.16742451,0.1030305 -0.66325865,0.4378795 -0.66325865,0.6825768 0,0.1481063 0.10303047,0.1481063 0.21250035,0.1481063 1.38447193,0.057955 2.22803388,0.2446974 4.29508268,0.9659107 1.4231084,0.5215918 2.8912926,1.0367441 4.5269013,1.0367441 2.4147762,0 4.4174312,-2.1314428 4.4174312,-2.9750048 0,-0.1030305 -0.07727,-0.1674245 -0.180303,-0.1674245 -0.206061,0 -0.643941,0.1674245 -0.97235,0.3928036 -0.476516,0.3090915 -0.515153,0.4571978 -0.618183,0.7212133 -0.289773,0.8306832 -0.727653,0.8886378 -1.2814415,0.8886378 -1.3651537,0 -2.2988674,-0.3284096 -5.2738722,-1.3393961 3.5738694,-1.0109865 8.0814527,-4.59129527 8.0814527,-9.5689548 0,-2.8075803 -1.526139,-5.0806901 -4.5655379,-5.0806901 -4.2178098,0 -9.1117571,4.314401 -9.1117571,8.61592306 0,2.18939744 1.30075963,3.84432444 3.5931876,3.84432444 2.086367,0 4.443189,-1.3651538 4.443189,-1.8609879 0,-0.1223487 -0.1481063,-0.1223487 -0.2253792,-0.1223487 -0.2897732,0 -0.6439404,0.206061 -0.9337136,0.3477278 -0.843562,0.476516 -1.7128816,0.4958342 -1.9189425,0.4958342 -1.8609879,0 -3.20682336,-1.44242659 -3.20682336,-3.5738694 0,-2.5822012 2.33750376,-6.6132683 5.99508546,-6.6132683 2.6015193,0 4.1727336,2.0670488 4.1727336,4.8166745 0,2.0477305 -0.8435616,4.37879491 -2.8075799,6.1174341 C 6.5340416,3.9420392 5.027221,4.6439343 1.6400943,4.6439343 Z m 0,0"
         style="fill:#ff0000;fill-opacity:1;fill-rule:nonzero;stroke:none" />
    </g>
    <g
       opacity="0.3"
       id="g22">
      <g
         clip-path="url(#clipPath19)"
         id="g21">
        <g
           clip-path="url(#clipPath18)"
           id="g20">
          <path
             d="M 0,0 H 100 V 100 H 0 Z"
             transform="matrix(-3.9939924,-4.7598094,-5.1595566,4.3294233,774.22716,187.86621)"
             style="fill:url(#linearGradient18);stroke:none"
             id="path20" />
        </g>
      </g>
    </g>
    <path
       id="path22"
       d="M 5.69547,32.45546 116.15027,10.64517 31.12283,-39.72556 -79.33195,-17.91528 Z"
       style="fill:none;stroke:#000000;stroke-width:0.3985;stroke-linecap:round;stroke-linejoin:round;stroke-miterlimit:10;stroke-dasharray:none;stroke-opacity:1"
       transform="matrix(2.4264667,0,0,-2.4264667,271.88052,157.52659)" />
    <g
       id="g23"
       aria-label="˚&#10;P"
       transform="matrix(2.4264667,0,0,2.4264667,143.10794,186.25353)">
      <path
         id="path23"
         d="m 6.5881032,-8.9956939 c 0,-0.7340921 -0.6310616,-1.2621231 -1.3200779,-1.2621231 -0.7791679,0 -1.3393961,0.6053038 -1.3393961,1.2492443 0,0.7276526 0.6375011,1.2621232 1.3200779,1.2621232 0.7791679,0 1.3393961,-0.605304 1.3393961,-1.2492444 z m -1.3200779,0.9594712 c -0.7598497,0 -1.0238653,-0.4443189 -1.0238653,-0.9594712 0,-0.7147739 0.4636372,-0.9723501 1.0045471,-0.9723501 0.7662891,0 1.0238653,0.4443189 1.0238653,0.9594713 0,0.7147738 -0.4636371,0.97235 -1.0045471,0.97235 z m 0,0"
         style="fill:#0000ff;fill-opacity:1;fill-rule:nonzero;stroke:none" />
      <path
         id="path24"
         d="m 3.4810906,-6.1752348 c -2.0219729,0 -3.55455117,0.9787894 -4.14697637,1.6484875 -0.50227353,0.5795464 -0.54090993,0.9916682 -0.54090993,1.0238653 0,0.083712 0.057955,0.1159092 0.1416669,0.1159092 0.23181851,0 0.56022814,-0.2060609 0.67613741,-0.2768943 0.30265201,-0.1996216 0.34128843,-0.2833338 0.43144009,-0.5602282 0.19962154,-0.573107 0.59886461,-1.0753805 2.4083372,-1.1590928 C 2.1932098,-2.1570465 1.3303296,0.9853828 0.12616096,3.9861452 0.0424487,4.1986456 0.0424487,4.2308426 0.0424487,4.2437214 c 0,0.038636 0.03863643,0.096591 0.1416669,0.096591 0.23181856,0 0.9143954,-0.3155308 1.0753805,-0.6890163 0.7469709,-1.7450786 1.9253819,-5.048493 2.3503826,-9.0344843 h 0.7469709 c 1.751518,0 3.4322025,0.6761375 3.4322025,2.1056852 0,1.0753805 -1.0367441,3.0844747 -3.8185667,3.17462636 -0.302652,0.01287881 -0.4571978,0.01287881 -0.8628802,0.27045499 -0.2575762,0.17386391 -0.3734855,0.32840962 -0.3734855,0.41856128 0,0.0965911 0.090152,0.0965911 0.2768944,0.0965911 2.6079588,0 5.9950855,-2.20871573 5.9950855,-4.57197713 0,-1.6356087 -1.9382608,-2.2859885 -3.5996271,-2.2859885 z m 0,0"
         style="fill:#0000ff;fill-opacity:1;fill-rule:nonzero;stroke:none" />
    </g>
    <path
       id="path25"
       d="M 0,0 53.73051,3.24077"
       style="fill:none;stroke:#0000ff;stroke-width:0.69739;stroke-linecap:round;stroke-linejoin:round;stroke-miterlimit:10;stroke-dasharray:none;stroke-opacity:1"
       transform="matrix(2.4264667,0,0,-2.4264667,271.88052,157.52659)" />
    <path
       id="path26"
       d="M -2.4309,2.93095 C -1.98679,1.17235 -0.9971,0.34193 0,0 -0.9971,-0.34193 -1.98679,-1.17235 -2.4309,-2.93095"
       style="fill:none;stroke:#0000ff;stroke-width:0.69739;stroke-linecap:round;stroke-linejoin:round;stroke-miterlimit:10;stroke-dasharray:none;stroke-opacity:1"
       transform="matrix(2.4219049,-0.14609756,-0.14609756,-2.4219049,403.1003,149.61204)" />
    <g
       id="g26"
       aria-label="∇&#10;˚&#10;P&#10;P&#10;Ψ"
       transform="matrix(2.4264667,0,0,2.4264667,412.48456,158.58696)">
      <path
         id="path27"
         d="m 7.7722846,-6.587932 c 0.019318,-0.025758 0.045076,-0.096591 0.045076,-0.1352274 0,-0.070833 -0.00644,-0.083712 -0.238258,-0.083712 H 0.70825799 c -0.23181856,0 -0.23825796,0.012879 -0.23825796,0.083712 0,0.038636 0.0257576,0.1094698 0.0450758,0.1352274 L 3.8764449,0.14124558 c 0.070833,0.12878809 0.096591,0.18674273 0.270455,0.18674273 0.1674245,0 0.1931821,-0.0579546 0.2640156,-0.18674273 z M 1.7063657,-6.0856584 H 7.17342 l -2.7303075,5.47993308 z m 0,0"
         style="fill:#0000ff;fill-opacity:1;fill-rule:nonzero;stroke:none" />
      <path
         id="path28"
         d="m 12.814338,-9.7432401 c 0,-0.3412889 -0.341288,-0.6117439 -0.75985,-0.6117439 -0.437879,0 -0.759849,0.289774 -0.759849,0.6053045 0,0.3412884 0.341288,0.6117434 0.759849,0.6117434 0.43788,0 0.75985,-0.2897732 0.75985,-0.605304 z m -0.75985,0.4121219 c -0.180303,0 -0.521591,-0.012879 -0.521591,-0.4121219 0,-0.3863639 0.296212,-0.4185609 0.521591,-0.4185609 0.22538,0 0.521592,0.0322 0.521592,0.4185609 0,0.3992431 -0.341288,0.4121219 -0.521592,0.4121219 z m 0,0"
         style="fill:#0000ff;fill-opacity:1;fill-rule:nonzero;stroke:none" />
      <path
         id="path29"
         d="m 11.045112,-8.3813061 c -0.367046,0 -0.97235,0.051515 -1.5905331,0.3670461 -0.7405315,0.3734854 -0.8821984,0.8950772 -0.8821984,0.9659106 0,0.057955 0.051515,0.064394 0.083712,0.064394 0.1030305,0 0.4829553,-0.1416669 0.5666676,-0.3863643 0.090152,-0.2768944 0.1803033,-0.5280311 1.3007599,-0.5859858 -0.09659,1.5583359 -0.515152,3.0780353 -1.1204566,4.5140225 -0.038636,0.090152 -0.038636,0.1030304 -0.038636,0.1159092 0,0.045076 0.032197,0.064394 0.077273,0.064394 0.1287881,0 0.4250007,-0.1352275 0.54091,-0.3155308 0.012879,-0.019318 0.1867426,-0.4250007 0.4056826,-1.0238653 0.573107,-1.5905329 0.701895,-2.8590955 0.759849,-3.3549297 h 0.43788 c 0.476516,0 1.848109,0.1030305 1.848109,0.9981077 0,0.637501 -0.598865,1.4424266 -2.009094,1.4875024 -0.148107,0 -0.264016,0.00644 -0.470077,0.1481063 -0.141667,0.096591 -0.186743,0.1738639 -0.186743,0.2125003 0,0.064394 0.05152,0.064394 0.148107,0.064394 0.663258,0 1.551896,-0.2575762 2.176518,-0.7018951 0.837123,-0.605304 0.991669,-1.210608 0.991669,-1.5196994 0,-0.8950772 -1.217048,-1.114017 -1.95114,-1.114017 z m 0,0"
         style="fill:#0000ff;fill-opacity:1;fill-rule:nonzero;stroke:none" />
      <path
         id="path30"
         d="m 10.130716,0.63064031 c 0.02576,0 0.173864,0 0.186743,0.0128788 h 0.238258 c 1.416669,0 1.925382,-0.66325865 1.925382,-1.32651729 0,-0.99166822 -0.895077,-1.31363852 -1.796594,-1.31363852 H 8.6496534 c -0.1223487,0 -0.238258,0 -0.238258,0.1287881 0,0.1159093 0.1352275,0.1159093 0.1931822,0.1159093 0.3606066,0 0.3863642,0.057955 0.3863642,0.3992431 v 3.4901571 c 0,0.3412885 -0.025758,0.3992431 -0.3799248,0.3992431 -0.070834,0 -0.1996216,0 -0.1996216,0.1223487 0,0.1223487 0.1159093,0.1223487 0.238258,0.1223487 h 1.8674276 c 0.128788,0 0.231818,0 0.231818,-0.1223487 0,-0.1223487 -0.115909,-0.1223487 -0.193182,-0.1223487 -0.399243,0 -0.425001,-0.057955 -0.425001,-0.3992431 z m 1.146214,-0.3090914 c 0.22538,-0.2962126 0.244698,-0.7340921 0.244698,-1.01098649 0,-0.37348542 -0.0322,-0.74053152 -0.212501,-0.99810772 0.379925,0.090152 0.927275,0.2962126 0.927275,1.00454713 0,0.48939473 -0.315531,0.84356197 -0.959472,1.00454708 z M 10.130716,-1.3720144 c 0,-0.1416669 0,-0.3799249 0.418562,-0.3799249 0.502273,0 0.727652,0.1867427 0.727652,1.06250172 0,0.99810768 -0.367046,1.08181993 -0.798486,1.08181993 H 10.130716 Z M 9.1776846,2.536704 C 9.2356392,2.4143553 9.2356392,2.2469308 9.2356392,2.1567791 V -1.365575 c 0,-0.090152 0,-0.2575762 -0.057955,-0.3863643 h 0.7984861 c -0.090152,0.1094699 -0.090152,0.2511368 -0.090152,0.3541672 v 3.5545512 c 0,0.064394 0,0.2575762 0.057955,0.3799249 z m 0,0"
         style="fill:#0000ff;fill-opacity:1;fill-rule:nonzero;stroke:none" />
      <path
         id="path31"
         d="m 19.28272,-6.014825 c 0,-0.3412884 0,-0.4829553 0.946592,-0.4829553 h 0.32841 v -0.3090914 c -0.360607,0.032197 -1.275002,0.032197 -1.687124,0.032197 -0.405683,0 -1.332957,0 -1.693563,-0.032197 v 0.3090914 h 0.328409 c 0.946593,0 0.946593,0.1287881 0.946593,0.4829553 v 4.4174314 c -1.30076,-0.3477278 -1.352275,-1.8803061 -1.352275,-2.5242465 -0.01288,-1.210608 -0.450759,-1.3973507 -0.888638,-1.3973507 h -0.367046 c -0.148106,0 -0.251137,0 -0.251137,0.1094698 0,0.051515 0.0322,0.096591 0.09015,0.1094699 0.328409,0.038636 0.579546,0.1803033 0.585986,1.3522749 0,0.2318186 0.0322,1.0174259 0.508713,1.687124 0.392803,0.5344705 0.998107,0.8242437 1.674245,0.9143954 v 0.56022816 c 0,0.33484902 0,0.47651592 -0.946593,0.47651592 H 17.177035 V -4.213122e-4 C 17.537641,-0.03261833 18.452037,-0.03261833 18.864159,-0.03261833 c 0.405682,0 1.332956,0 1.693563,0.0321970178 V -0.30951272 h -0.32841 c -0.946592,0 -0.946592,-0.12878809 -0.946592,-0.47651592 V -1.3462568 c 0.714774,-0.090152 1.320078,-0.3863643 1.712881,-0.907956 0.515153,-0.7018951 0.528032,-1.4939418 0.528032,-1.9318213 0,-0.1545457 0.0064,-1.0431835 0.547349,-1.114017 0.05795,-0.012879 0.128788,-0.019318 0.128788,-0.1094699 0,-0.1094698 -0.08371,-0.1094698 -0.238258,-0.1094698 h -0.379925 c -0.386364,0 -0.875759,0.070833 -0.888638,1.51326 -0.0064,1.0946987 -0.334849,2.150761 -1.410229,2.4083372 z m 0,0"
         style="fill:#0000ff;fill-opacity:1;fill-rule:nonzero;stroke:none" />
    </g>
    <path
       id="path32"
       d="M 0,0 V 54.94205"
       style="fill:none;stroke:#d96c00;stroke-width:0.99628;stroke-linecap:round;stroke-linejoin:round;stroke-miterlimit:10;stroke-dasharray:none;stroke-opacity:1"
       transform="matrix(2.4264667,0,0,-2.4264667,271.88052,157.52659)" />
    <path
       id="path33"
       d="M -2.78957,3.47087 C -2.27992,1.38832 -1.14423,0.40492 0,0 -1.14423,-0.40492 -2.27992,-1.38832 -2.78957,-3.47087"
       style="fill:none;stroke:#d96c00;stroke-width:0.99628;stroke-linecap:round;stroke-linejoin:round;stroke-miterlimit:10;stroke-dasharray:none;stroke-opacity:1"
       transform="matrix(0,-2.4264667,-2.4264667,0,271.88052,23.002821)" />
    <g
       id="g33"
       aria-label="˚&#10;P&#10;⊥"
       transform="matrix(2.4264667,0,0,2.4264667,284.19969,28.2032)">
      <path
         id="path34"
         d="m 5.4861765,-7.4954975 c 0,-0.6117435 -0.5215918,-1.0560624 -1.0946988,-1.0560624 -0.6503798,0 -1.1140169,0.5022736 -1.1140169,1.0431836 0,0.6117434 0.5280311,1.0496229 1.1011381,1.0496229 0.6439405,0 1.1075776,-0.5022736 1.1075776,-1.0367441 z m -1.0946988,0.7984861 c -0.637501,0 -0.8500013,-0.367046 -0.8500013,-0.7984861 0,-0.5988646 0.3799248,-0.8178044 0.8371225,-0.8178044 0.6310617,0 0.8500014,0.3734855 0.8500014,0.8049256 0,0.5988646 -0.3863643,0.8113649 -0.8371226,0.8113649 z m 0,0"
         style="fill:#d96c00;fill-opacity:1;fill-rule:nonzero;stroke:none" />
      <path
         id="path35"
         d="m 2.9023655,-5.1435051 c -1.687124,0 -2.96212602,0.8113649 -3.45152075,1.3715931 -0.41856128,0.4829553 -0.45719775,0.8242438 -0.45719775,0.8500014 0,0.070833 0.0450759,0.096591 0.12234873,0.096591 0.18674272,0 0.46363711,-0.1674246 0.56022818,-0.2253792 0.25113677,-0.1674245 0.28333379,-0.238258 0.36060664,-0.4700765 C 0.20425506,-3.9972911 0.53910409,-4.4158524 2.0459247,-4.4866859 1.826985,-1.7950148 1.1122111,0.81938332 0.107664,3.3178722 0.03683055,3.4981755 0.03683055,3.5239331 0.03683055,3.536812 c 0,0.032197 0.03219702,0.083712 0.11590928,0.083712 0.19318213,0 0.76628911,-0.2640156 0.89507717,-0.573107 0.6246223,-1.4617448 1.6034117,-4.2113704 1.9640184,-7.5341031 h 0.6246222 c 1.4553054,0 2.8526561,0.5602282 2.8526561,1.7579574 0,0.8950772 -0.8564408,2.56932236 -3.1810657,2.64015581 -0.2511368,0.01287881 -0.3799249,0.01287881 -0.7147739,0.22537915 -0.2125004,0.1481063 -0.3090914,0.27689439 -0.3090914,0.34772784 0,0.0837123 0.070833,0.0837123 0.2253791,0.0837123 2.1765187,0 4.9969778,-1.8416697 4.9969778,-3.8121274 0,-1.3651537 -1.6162905,-1.8996243 -3.0007624,-1.8996243 z m 0,0"
         style="fill:#d96c00;fill-opacity:1;fill-rule:nonzero;stroke:none" />
      <path
         id="path36"
         d="m 11.516679,-6.5456854 c 0,-0.1287881 0,-0.302652 -0.186743,-0.302652 -0.180303,0 -0.180303,0.1738639 -0.180303,0.3090914 v 4.8553109 H 8.8185682 c -0.1352275,0 -0.3090914,0 -0.3090914,0.1867427 0,0.1803033 0.1738639,0.1803033 0.3090914,0.1803033 h 5.0356138 c 0.122349,0 0.302652,0 0.302652,-0.1803033 0,-0.1867427 -0.180303,-0.1867427 -0.302652,-0.1867427 h -2.337503 z m 0,0"
         style="fill:#d96c00;fill-opacity:1;fill-rule:nonzero;stroke:none" />
    </g>
    <path
       id="path37"
       d="M 54.4347,3.2833 V 58.22534"
       style="fill:none;stroke:#d96c00;stroke-width:0.99628;stroke-linecap:round;stroke-linejoin:round;stroke-miterlimit:10;stroke-dasharray:none;stroke-opacity:1"
       transform="matrix(2.4264667,0,0,-2.4264667,271.88052,157.52659)" />
    <path
       id="path38"
       d="M -2.78957,3.47087 C -2.27992,1.38832 -1.14423,0.40492 0,0 -1.14423,-0.40492 -2.27992,-1.38832 -2.78957,-3.47087"
       style="fill:none;stroke:#d96c00;stroke-width:0.99628;stroke-linecap:round;stroke-linejoin:round;stroke-miterlimit:10;stroke-dasharray:none;stroke-opacity:1"
       transform="matrix(0,-2.4264667,-2.4264667,0,403.96451,15.036027)" />
    <path
       id="path39"
       d="M 0,0 53.92401,42.04137"
       style="fill:none;stroke:#ff0000;stroke-width:0.64757;stroke-linecap:round;stroke-linejoin:round;stroke-miterlimit:10;stroke-dasharray:none;stroke-opacity:1"
       transform="matrix(2.4264667,0,0,-2.4264667,271.88052,157.52659)" />
    <path
       id="path40"
       d="M -2.37112,2.84097 C -1.93793,1.13635 -0.97258,0.33144 0,0 -0.97258,-0.33144 -1.93793,-1.13635 -2.37112,-2.84097"
       style="fill:none;stroke:#ff0000;stroke-width:0.64757;stroke-linecap:round;stroke-linejoin:round;stroke-miterlimit:10;stroke-dasharray:none;stroke-opacity:1"
       transform="matrix(1.9135601,-1.4918888,-1.4918888,-1.9135601,403.34489,55.031623)" />
    <path
       id="path41"
       d="m 55.92911,42.43951 c 0,0.82534 -0.66907,1.49442 -1.49441,1.49442 -0.82536,0 -1.49442,-0.66908 -1.49442,-1.49442 0,-0.82534 0.66906,-1.49441 1.49442,-1.49441 0.82534,0 1.49441,0.66907 1.49441,1.49441 z"
       style="fill:#ff0000;fill-opacity:1;fill-rule:nonzero;stroke:none"
       transform="matrix(2.4264667,0,0,-2.4264667,271.88052,157.52659)" />
    <g
       id="g41"
       aria-label="∇&#10;˚&#10;Q&#10;P&#10;Ψ"
       transform="matrix(2.4264667,0,0,2.4264667,412.50397,63.952333)">
      <path
         id="path42"
         d="m 7.7723338,-6.5871844 c 0.019318,-0.025758 0.045076,-0.096591 0.045076,-0.1352275 0,-0.070833 -0.00644,-0.083712 -0.2382579,-0.083712 H 0.70830724 c -0.23181855,0 -0.23825796,0.012879 -0.23825796,0.083712 0,0.038636 0.0257576,0.1094699 0.0450758,0.1352275 L 3.8764942,0.14199316 c 0.070833,0.12878809 0.096591,0.18674272 0.270455,0.18674272 0.1674245,0 0.1931821,-0.0579546 0.2640155,-0.18674272 z m -6.0659189,0.5022736 h 5.4670543 l -2.7303074,5.47993305 z m 0,0"
         style="fill:#ff0000;fill-opacity:1;fill-rule:nonzero;stroke:none" />
      <path
         id="path43"
         d="m 13.179824,-10.238327 c 0,-0.341288 -0.341289,-0.611743 -0.75985,-0.611743 -0.43788,0 -0.75985,0.289773 -0.75985,0.605304 0,0.3412884 0.341289,0.6117434 0.75985,0.6117434 0.437879,0 0.75985,-0.2897732 0.75985,-0.6053044 z m -0.75985,0.4121222 c -0.180303,0 -0.521592,-0.012879 -0.521592,-0.4121222 0,-0.386364 0.296213,-0.418561 0.521592,-0.418561 0.225379,0 0.521592,0.0322 0.521592,0.418561 0,0.3992434 -0.341289,0.4121222 -0.521592,0.4121222 z m 0,0"
         style="fill:#ff0000;fill-opacity:1;fill-rule:nonzero;stroke:none" />
      <path
         id="path44"
         d="m 10.124326,-4.3285633 c -0.1352272,0 -0.2253789,0 -0.4121216,0.1159093 -0.070833,0.038636 -0.2446974,0.1609851 -0.2446974,0.2575761 0,0.032197 0.025758,0.051515 0.070834,0.051515 0.502273,0.019318 0.817804,0.077273 1.558335,0.3155308 0.663259,0.2060609 1.171972,0.367046 1.764398,0.367046 0.927274,0 1.629169,-0.7469709 1.629169,-1.0431835 0,-0.038636 -0.04508,-0.064394 -0.07727,-0.064394 -0.11591,0 -0.489395,0.1481063 -0.573107,0.3799248 -0.07083,0.206061 -0.148107,0.2962126 -0.482956,0.2962126 -0.264015,0 -0.624622,-0.051515 -0.933713,-0.1352274 -0.418562,-0.1030305 -0.611744,-0.1803034 -1.004548,-0.2962126 0.405683,-0.1352275 1.3072,-0.4378795 2.073488,-1.2556839 0.489394,-0.5215917 0.811365,-1.1848504 0.811365,-1.8996243 0,-0.97235 -0.637501,-1.7708362 -1.751517,-1.7708362 -1.584095,0 -3.3227335,1.4553054 -3.3227335,2.8526562 0,0.7147738 0.4893948,1.3393961 1.3973515,1.3393961 0.746971,0 1.62273,-0.4314401 1.62273,-0.6375011 0,-0.057955 -0.06439,-0.057955 -0.09015,-0.057955 -0.05796,0 -0.135227,0.032197 -0.251137,0.083712 -0.341288,0.1609852 -0.65038,0.1803034 -0.785607,0.1803034 -0.734092,0 -1.2428056,-0.4893948 -1.2428056,-1.2234869 0,-0.8821984 0.8371226,-2.1121246 2.1765196,-2.1121246 0.953031,0 1.603411,0.6890163 1.603411,1.6549269 0,1.0431835 -0.669698,1.6806846 -0.895077,1.8803061 -0.528031,0.4443189 -1.159093,0.7212133 -2.453413,0.7212133 z m 0,0"
         style="fill:#ff0000;fill-opacity:1;fill-rule:nonzero;stroke:none" />
      <path
         id="path45"
         d="m 10.130766,0.81491091 c 0.02576,0 0.173864,0 0.186742,0.0128788 h 0.238258 c 1.416669,0 1.925382,-0.66325865 1.925382,-1.32651729 0,-0.99166822 -0.895077,-1.31363852 -1.796594,-1.31363852 H 8.6497027 c -0.1223487,0 -0.238258,0 -0.238258,0.1287881 0,0.1159093 0.1352275,0.1159093 0.1931821,0.1159093 0.3606067,0 0.3863643,0.057955 0.3863643,0.3992431 v 3.4901571 c 0,0.3412885 -0.025758,0.3992431 -0.3799249,0.3992431 -0.070833,0 -0.1996215,0 -0.1996215,0.1223487 0,0.1223487 0.1159093,0.1223487 0.238258,0.1223487 H 10.51713 c 0.128788,0 0.231818,0 0.231818,-0.1223487 0,-0.1223487 -0.115909,-0.1223487 -0.193182,-0.1223487 -0.399243,0 -0.425,-0.057955 -0.425,-0.3992431 z M 11.27698,0.5058195 c 0.225379,-0.2962126 0.244697,-0.73409209 0.244697,-1.01098648 0,-0.37348545 -0.0322,-0.74053152 -0.2125,-0.99810772 0.379925,0.090152 0.927274,0.2962126 0.927274,1.00454713 0,0.48939473 -0.315531,0.84356197 -0.959471,1.00454707 z m -1.146214,-1.6935633 c 0,-0.1416669 0,-0.3799249 0.418561,-0.3799249 0.502273,0 0.727653,0.1867427 0.727653,1.06250172 0,0.99810768 -0.367046,1.08181993 -0.798487,1.08181993 H 10.130766 Z M 9.1777338,2.7209746 c 0.057955,-0.1223487 0.057955,-0.2897732 0.057955,-0.3799249 v -3.5223541 c 0,-0.090152 0,-0.2575762 -0.057955,-0.3863643 h 0.7984861 c -0.090152,0.1094699 -0.090152,0.2511368 -0.090152,0.3541672 v 3.5545512 c 0,0.064394 0,0.2575762 0.057955,0.3799249 z m 0,0"
         style="fill:#ff0000;fill-opacity:1;fill-rule:nonzero;stroke:none" />
      <path
         id="path46"
         d="m 19.583811,-6.0140774 c 0,-0.3412884 0,-0.4829553 0.946593,-0.4829553 h 0.328409 v -0.3090914 c -0.360606,0.032197 -1.275002,0.032197 -1.687124,0.032197 -0.405682,0 -1.332956,0 -1.693563,-0.032197 v 0.3090914 h 0.32841 c 0.946592,0 0.946592,0.1287881 0.946592,0.4829553 v 4.4174314 c -1.30076,-0.3477278 -1.352275,-1.8803061 -1.352275,-2.5242465 -0.01288,-1.210608 -0.450758,-1.3973508 -0.888638,-1.3973508 h -0.367046 c -0.148106,0 -0.251136,0 -0.251136,0.1094699 0,0.051515 0.0322,0.096591 0.09015,0.1094699 0.32841,0.038636 0.579547,0.1803033 0.585986,1.3522749 0,0.2318186 0.0322,1.0174259 0.508713,1.6871239 0.392804,0.5344706 0.998108,0.8242438 1.674245,0.9143955 v 0.56022813 c 0,0.33484903 0,0.47651592 -0.946592,0.47651592 h -0.32841 V 3.2626315e-4 C 17.838733,-0.03187076 18.753128,-0.03187076 19.16525,-0.03187076 c 0.405682,0 1.332957,0 1.693563,0.0321970231 V -0.30876515 h -0.328409 c -0.946593,0 -0.946593,-0.12878808 -0.946593,-0.47651592 V -1.3455092 c 0.714774,-0.090152 1.320078,-0.3863643 1.712882,-0.9079561 0.515152,-0.701895 0.528031,-1.4939418 0.528031,-1.9318213 0,-0.1545457 0.0064,-1.0431835 0.547349,-1.1140169 0.05795,-0.012879 0.128788,-0.019318 0.128788,-0.1094699 0,-0.1094699 -0.08371,-0.1094699 -0.238258,-0.1094699 h -0.379924 c -0.386365,0 -0.875759,0.070833 -0.888638,1.5132601 -0.0064,1.0946987 -0.334849,2.150761 -1.41023,2.4083372 z m 0,0"
         style="fill:#ff0000;fill-opacity:1;fill-rule:nonzero;stroke:none" />
    </g>
    <path
       id="path47"
       d="m 55.92911,3.2833 c 0,0.82534 -0.66907,1.49441 -1.49441,1.49441 -0.82536,0 -1.49442,-0.66907 -1.49442,-1.49441 0,-0.82534 0.66906,-1.49442 1.49442,-1.49442 0.82534,0 1.49441,0.66908 1.49441,1.49442 z"
       style="fill:#0000ff;fill-opacity:1;fill-rule:nonzero;stroke:none"
       transform="matrix(2.4264667,0,0,-2.4264667,271.88052,157.52659)" />
  </g>
</svg>
